# Wavefront OBJ file automatically generated by Tiled2Unity

# Vertices (Count = 248)
v 0 -1 0
v -1 -1 0
v -1 0 0
v 0 0 0
v -2 -1 0
v -2 0 0
v -3 -1 0
v -3 0 0
v -4 -1 0
v -4 0 0
v -5 -1 0
v -5 0 0
v -6 -1 0
v -6 0 0
v -7 -1 0
v -7 0 0
v -8 -1 0
v -8 0 0
v -9 -1 0
v -9 0 0
v -10 -1 0
v -10 0 0
v -11 -1 0
v -11 0 0
v -12 -1 0
v -12 0 0
v -13 -1 0
v -13 0 0
v -14 -1 0
v -14 0 0
v -15 -1 0
v -15 0 0
v -16 -1 0
v -16 0 0
v -17 -1 0
v -17 0 0
v -18 -1 0
v -18 0 0
v -19 -1 0
v -19 0 0
v -20 -1 0
v -20 0 0
v -21 -1 0
v -21 0 0
v -22 -1 0
v -22 0 0
v -23 -1 0
v -23 0 0
v -24 -1 0
v -24 0 0
v -25 -1 0
v -25 0 0
v -26 -1 0
v -26 0 0
v -27 -1 0
v -27 0 0
v -28 -1 0
v -28 0 0
v -29 -1 0
v -29 0 0
v -30 -1 0
v -30 0 0
v -31 -1 0
v -31 0 0
v -32 -1 0
v -32 0 0
v 0 -2 0
v -1 -2 0
v -31 -2 0
v -32 -2 0
v 0 -3 0
v -1 -3 0
v -31 -3 0
v -32 -3 0
v 0 -4 0
v -1 -4 0
v -31 -4 0
v -32 -4 0
v 0 -5 0
v -1 -5 0
v -31 -5 0
v -32 -5 0
v 0 -6 0
v -1 -6 0
v -31 -6 0
v -32 -6 0
v 0 -7 0
v -1 -7 0
v -31 -7 0
v -32 -7 0
v 0 -8 0
v -1 -8 0
v -31 -8 0
v -32 -8 0
v 0 -9 0
v -1 -9 0
v -31 -9 0
v -32 -9 0
v 0 -10 0
v -1 -10 0
v -31 -10 0
v -32 -10 0
v 0 -11 0
v -1 -11 0
v -31 -11 0
v -32 -11 0
v 0 -12 0
v -1 -12 0
v -31 -12 0
v -32 -12 0
v 0 -13 0
v -1 -13 0
v -31 -13 0
v -32 -13 0
v 0 -14 0
v -1 -14 0
v -31 -14 0
v -32 -14 0
v 0 -15 0
v -1 -15 0
v -31 -15 0
v -32 -15 0
v 0 -16 0
v -1 -16 0
v -31 -16 0
v -32 -16 0
v 0 -17 0
v -1 -17 0
v -31 -17 0
v -32 -17 0
v 0 -18 0
v -1 -18 0
v -31 -18 0
v -32 -18 0
v 0 -19 0
v -1 -19 0
v -31 -19 0
v -32 -19 0
v 0 -20 0
v -1 -20 0
v -31 -20 0
v -32 -20 0
v 0 -21 0
v -1 -21 0
v -31 -21 0
v -32 -21 0
v 0 -22 0
v -1 -22 0
v -31 -22 0
v -32 -22 0
v 0 -23 0
v -1 -23 0
v -31 -23 0
v -32 -23 0
v 0 -24 0
v -1 -24 0
v -31 -24 0
v -32 -24 0
v 0 -25 0
v -1 -25 0
v -31 -25 0
v -32 -25 0
v 0 -26 0
v -1 -26 0
v -31 -26 0
v -32 -26 0
v 0 -27 0
v -1 -27 0
v -31 -27 0
v -32 -27 0
v 0 -28 0
v -1 -28 0
v -31 -28 0
v -32 -28 0
v 0 -29 0
v -1 -29 0
v -31 -29 0
v -32 -29 0
v 0 -30 0
v -1 -30 0
v -31 -30 0
v -32 -30 0
v 0 -31 0
v -1 -31 0
v -31 -31 0
v -32 -31 0
v 0 -32 0
v -1 -32 0
v -2 -32 0
v -2 -31 0
v -3 -32 0
v -3 -31 0
v -4 -32 0
v -4 -31 0
v -5 -32 0
v -5 -31 0
v -6 -32 0
v -6 -31 0
v -7 -32 0
v -7 -31 0
v -8 -32 0
v -8 -31 0
v -9 -32 0
v -9 -31 0
v -10 -32 0
v -10 -31 0
v -11 -32 0
v -11 -31 0
v -12 -32 0
v -12 -31 0
v -13 -32 0
v -13 -31 0
v -14 -32 0
v -14 -31 0
v -15 -32 0
v -15 -31 0
v -16 -32 0
v -16 -31 0
v -17 -32 0
v -17 -31 0
v -18 -32 0
v -18 -31 0
v -19 -32 0
v -19 -31 0
v -20 -32 0
v -20 -31 0
v -21 -32 0
v -21 -31 0
v -22 -32 0
v -22 -31 0
v -23 -32 0
v -23 -31 0
v -24 -32 0
v -24 -31 0
v -25 -32 0
v -25 -31 0
v -26 -32 0
v -26 -31 0
v -27 -32 0
v -27 -31 0
v -28 -32 0
v -28 -31 0
v -29 -32 0
v -29 -31 0
v -30 -32 0
v -30 -31 0
v -31 -32 0
v -32 -32 0

# Texture cooridinates (Count = 4)
vt 0.2500153 0.8846201
vt 0.3749847 0.8846201
vt 0.3749847 0.9230722
vt 0.2500153 0.9230722

# Normal
vn 0 0 -1

# Groups (Count = 1)

g mesh_0001
f 1/1/1 2/2/1 3/3/1 4/4/1
f 2/1/1 5/2/1 6/3/1 3/4/1
f 5/1/1 7/2/1 8/3/1 6/4/1
f 7/1/1 9/2/1 10/3/1 8/4/1
f 9/1/1 11/2/1 12/3/1 10/4/1
f 11/1/1 13/2/1 14/3/1 12/4/1
f 13/1/1 15/2/1 16/3/1 14/4/1
f 15/1/1 17/2/1 18/3/1 16/4/1
f 17/1/1 19/2/1 20/3/1 18/4/1
f 19/1/1 21/2/1 22/3/1 20/4/1
f 21/1/1 23/2/1 24/3/1 22/4/1
f 23/1/1 25/2/1 26/3/1 24/4/1
f 25/1/1 27/2/1 28/3/1 26/4/1
f 27/1/1 29/2/1 30/3/1 28/4/1
f 29/1/1 31/2/1 32/3/1 30/4/1
f 31/1/1 33/2/1 34/3/1 32/4/1
f 33/1/1 35/2/1 36/3/1 34/4/1
f 35/1/1 37/2/1 38/3/1 36/4/1
f 37/1/1 39/2/1 40/3/1 38/4/1
f 39/1/1 41/2/1 42/3/1 40/4/1
f 41/1/1 43/2/1 44/3/1 42/4/1
f 43/1/1 45/2/1 46/3/1 44/4/1
f 45/1/1 47/2/1 48/3/1 46/4/1
f 47/1/1 49/2/1 50/3/1 48/4/1
f 49/1/1 51/2/1 52/3/1 50/4/1
f 51/1/1 53/2/1 54/3/1 52/4/1
f 53/1/1 55/2/1 56/3/1 54/4/1
f 55/1/1 57/2/1 58/3/1 56/4/1
f 57/1/1 59/2/1 60/3/1 58/4/1
f 59/1/1 61/2/1 62/3/1 60/4/1
f 61/1/1 63/2/1 64/3/1 62/4/1
f 63/1/1 65/2/1 66/3/1 64/4/1
f 67/1/1 68/2/1 2/3/1 1/4/1
f 69/1/1 70/2/1 65/3/1 63/4/1
f 71/1/1 72/2/1 68/3/1 67/4/1
f 73/1/1 74/2/1 70/3/1 69/4/1
f 75/1/1 76/2/1 72/3/1 71/4/1
f 77/1/1 78/2/1 74/3/1 73/4/1
f 79/1/1 80/2/1 76/3/1 75/4/1
f 81/1/1 82/2/1 78/3/1 77/4/1
f 83/1/1 84/2/1 80/3/1 79/4/1
f 85/1/1 86/2/1 82/3/1 81/4/1
f 87/1/1 88/2/1 84/3/1 83/4/1
f 89/1/1 90/2/1 86/3/1 85/4/1
f 91/1/1 92/2/1 88/3/1 87/4/1
f 93/1/1 94/2/1 90/3/1 89/4/1
f 95/1/1 96/2/1 92/3/1 91/4/1
f 97/1/1 98/2/1 94/3/1 93/4/1
f 99/1/1 100/2/1 96/3/1 95/4/1
f 101/1/1 102/2/1 98/3/1 97/4/1
f 103/1/1 104/2/1 100/3/1 99/4/1
f 105/1/1 106/2/1 102/3/1 101/4/1
f 107/1/1 108/2/1 104/3/1 103/4/1
f 109/1/1 110/2/1 106/3/1 105/4/1
f 111/1/1 112/2/1 108/3/1 107/4/1
f 113/1/1 114/2/1 110/3/1 109/4/1
f 115/1/1 116/2/1 112/3/1 111/4/1
f 117/1/1 118/2/1 114/3/1 113/4/1
f 119/1/1 120/2/1 116/3/1 115/4/1
f 121/1/1 122/2/1 118/3/1 117/4/1
f 123/1/1 124/2/1 120/3/1 119/4/1
f 125/1/1 126/2/1 122/3/1 121/4/1
f 127/1/1 128/2/1 124/3/1 123/4/1
f 129/1/1 130/2/1 126/3/1 125/4/1
f 131/1/1 132/2/1 128/3/1 127/4/1
f 133/1/1 134/2/1 130/3/1 129/4/1
f 135/1/1 136/2/1 132/3/1 131/4/1
f 137/1/1 138/2/1 134/3/1 133/4/1
f 139/1/1 140/2/1 136/3/1 135/4/1
f 141/1/1 142/2/1 138/3/1 137/4/1
f 143/1/1 144/2/1 140/3/1 139/4/1
f 145/1/1 146/2/1 142/3/1 141/4/1
f 147/1/1 148/2/1 144/3/1 143/4/1
f 149/1/1 150/2/1 146/3/1 145/4/1
f 151/1/1 152/2/1 148/3/1 147/4/1
f 153/1/1 154/2/1 150/3/1 149/4/1
f 155/1/1 156/2/1 152/3/1 151/4/1
f 157/1/1 158/2/1 154/3/1 153/4/1
f 159/1/1 160/2/1 156/3/1 155/4/1
f 161/1/1 162/2/1 158/3/1 157/4/1
f 163/1/1 164/2/1 160/3/1 159/4/1
f 165/1/1 166/2/1 162/3/1 161/4/1
f 167/1/1 168/2/1 164/3/1 163/4/1
f 169/1/1 170/2/1 166/3/1 165/4/1
f 171/1/1 172/2/1 168/3/1 167/4/1
f 173/1/1 174/2/1 170/3/1 169/4/1
f 175/1/1 176/2/1 172/3/1 171/4/1
f 177/1/1 178/2/1 174/3/1 173/4/1
f 179/1/1 180/2/1 176/3/1 175/4/1
f 181/1/1 182/2/1 178/3/1 177/4/1
f 183/1/1 184/2/1 180/3/1 179/4/1
f 185/1/1 186/2/1 182/3/1 181/4/1
f 187/1/1 188/2/1 184/3/1 183/4/1
f 188/1/1 189/2/1 190/3/1 184/4/1
f 189/1/1 191/2/1 192/3/1 190/4/1
f 191/1/1 193/2/1 194/3/1 192/4/1
f 193/1/1 195/2/1 196/3/1 194/4/1
f 195/1/1 197/2/1 198/3/1 196/4/1
f 197/1/1 199/2/1 200/3/1 198/4/1
f 199/1/1 201/2/1 202/3/1 200/4/1
f 201/1/1 203/2/1 204/3/1 202/4/1
f 203/1/1 205/2/1 206/3/1 204/4/1
f 205/1/1 207/2/1 208/3/1 206/4/1
f 207/1/1 209/2/1 210/3/1 208/4/1
f 209/1/1 211/2/1 212/3/1 210/4/1
f 211/1/1 213/2/1 214/3/1 212/4/1
f 213/1/1 215/2/1 216/3/1 214/4/1
f 215/1/1 217/2/1 218/3/1 216/4/1
f 217/1/1 219/2/1 220/3/1 218/4/1
f 219/1/1 221/2/1 222/3/1 220/4/1
f 221/1/1 223/2/1 224/3/1 222/4/1
f 223/1/1 225/2/1 226/3/1 224/4/1
f 225/1/1 227/2/1 228/3/1 226/4/1
f 227/1/1 229/2/1 230/3/1 228/4/1
f 229/1/1 231/2/1 232/3/1 230/4/1
f 231/1/1 233/2/1 234/3/1 232/4/1
f 233/1/1 235/2/1 236/3/1 234/4/1
f 235/1/1 237/2/1 238/3/1 236/4/1
f 237/1/1 239/2/1 240/3/1 238/4/1
f 239/1/1 241/2/1 242/3/1 240/4/1
f 241/1/1 243/2/1 244/3/1 242/4/1
f 243/1/1 245/2/1 246/3/1 244/4/1
f 245/1/1 247/2/1 185/3/1 246/4/1
f 247/1/1 248/2/1 186/3/1 185/4/1

